<svg width="1440" height="746" viewBox="0 0 1440 746" fill="none" xmlns="http://www.w3.org/2000/svg">
<g clip-path="url(#clip0_4501_4)">
<rect width="1560" height="1000" fill="#FFFF"/>
<g style="mix-blend-mode:multiply" opacity="0.1" clip-path="url(#clip1_4501_4)">
<path d="M95.6516 488.098C90.615 485.468 87.4967 480.218 87.5974 474.538C89.2584 380.02 -54.9133 336.619 -56.3684 336.193C-64.3148 333.86 -68.8729 325.533 -66.5478 317.586C-64.2228 309.64 -55.9046 305.078 -47.9561 307.397C-46.2732 307.888 -6.27801 319.713 33.9948 345.412C80.0637 374.809 107.809 410.654 115.446 450.19C152.254 433.861 197.524 436.144 247.976 457.146C292.08 475.502 324.641 501.568 326.007 502.668C332.456 507.869 333.469 517.312 328.269 523.761C323.068 530.209 313.628 531.218 307.177 526.022C306.002 525.077 187.993 431.576 111.382 486.957C106.778 490.286 100.687 490.727 95.6516 488.098Z" fill="#E2DFF4"/>
<path d="M111.382 486.957C187.993 431.575 306.002 525.077 307.177 526.022C313.628 531.218 323.068 530.209 328.269 523.76C333.469 517.312 332.456 507.869 326.007 502.668C324.642 501.567 292.08 475.502 247.976 457.146C197.525 436.143 152.254 433.861 115.446 450.19L95.6512 488.099C100.687 490.727 106.778 490.286 111.382 486.957Z" fill="#BEBCDD"/>
<path d="M301.237 592.47C302.236 588.332 301.422 583.97 299.015 580.457C295.365 575.155 211.134 454.529 110.825 459.04C57.1943 374.157 -89.925 373.968 -96.3624 374.004C-100.621 374.036 -104.665 375.862 -107.49 379.046L-144.409 420.606L-135.518 438.003L32.0529 476.731C32.0529 476.731 44.034 592.054 139.177 532.668L280.966 660.435L288.734 646.974L301.237 592.47Z" fill="#F9F9F9"/>
<path d="M288.23 646.522L301.239 592.471C302.235 588.333 301.425 583.966 299.013 580.459C295.363 575.153 211.134 454.535 110.825 459.039L61.4001 553.693C87.825 567.491 119.902 563.465 143.699 547.003L271.038 664.895L288.739 646.981L288.23 646.522Z" fill="#E2DFF4"/>
<path d="M271.794 671.455C270.709 670.888 269.678 670.179 268.724 669.326L139.998 554.094C116.199 570.555 85.0475 572.808 58.6234 559.01C32.1993 545.212 16.2437 518.362 16.1513 489.425L-151.977 449.65C-160.042 447.738 -165.029 439.66 -163.121 431.599C-161.213 423.538 -153.132 418.548 -145.07 420.456L35.6121 463.202C43.362 465.034 48.3205 472.593 46.9269 480.425C43.1662 501.571 53.4463 522.465 72.5087 532.419C91.5711 542.372 114.592 538.867 129.794 523.696C135.425 518.076 144.462 517.829 150.394 523.138L288.734 646.974C294.906 652.499 295.43 661.982 289.906 668.154C285.234 673.373 277.731 674.554 271.794 671.455Z" fill="#BC8173"/>
<path d="M139.998 554.094L268.724 669.326C269.678 670.178 270.709 670.888 271.794 671.455C277.73 674.553 285.234 673.373 289.905 668.154C295.43 661.981 294.906 652.499 288.733 646.973L150.393 523.137C144.461 517.828 135.424 518.076 129.794 523.696C114.591 538.867 91.5702 542.372 72.5078 532.418L58.622 559.011C85.047 572.809 116.199 570.557 139.998 554.094Z" fill="#865240"/>
<path d="M480.121 244.381L468.597 238.364L474.614 226.841C478.449 219.497 475.604 210.436 468.261 206.601C460.918 202.767 451.856 205.612 448.022 212.955L442.005 224.478L430.481 218.461C423.138 214.627 414.076 217.471 410.242 224.814C406.408 232.158 409.252 241.219 416.596 245.054L428.119 251.071L422.102 262.594C418.267 269.937 421.112 278.999 428.455 282.833C435.798 286.668 444.86 283.823 448.694 276.48L454.711 264.956L466.235 270.974C473.578 274.808 482.64 271.963 486.474 264.62C490.308 257.277 487.464 248.215 480.121 244.381Z" fill="#31BEBE"/>
<path d="M229.517 404.58C224.309 401.861 220.975 396.2 221.513 389.983C222.227 381.73 229.498 375.619 237.75 376.334L341.361 385.312C349.614 386.024 355.724 393.298 355.01 401.55C354.295 409.803 347.024 415.915 338.772 415.199L235.162 406.221C233.126 406.045 231.221 405.47 229.517 404.58Z" fill="#FABE2C"/>
<path d="M194.38 368.183C193.361 367.651 192.388 366.991 191.48 366.204C185.225 360.773 184.556 351.3 189.988 345.044L303.204 214.64C308.636 208.385 318.104 207.716 324.364 213.148C330.62 218.579 331.288 228.052 325.856 234.308L212.64 364.711C207.997 370.06 200.396 371.324 194.38 368.183Z" fill="#FABE2C"/>
<path d="M137.623 338.544C131.112 335.144 127.923 327.389 130.439 320.261L168.096 213.577C170.854 205.765 179.422 201.668 187.234 204.425C195.038 207.175 199.144 215.751 196.386 223.564L158.729 330.248C155.971 338.06 147.403 342.157 139.59 339.4C138.906 339.157 138.249 338.871 137.623 338.544Z" fill="#FED843"/>
<path d="M73.5042 323.111C70.1012 321.334 67.3764 318.258 66.1367 314.307L25.475 184.776C22.9933 176.873 27.3896 168.454 35.2936 165.973C43.1963 163.492 51.6155 167.888 54.0972 175.791L94.7588 305.322C97.2405 313.225 92.8443 321.644 84.9402 324.125C80.9873 325.365 76.9072 324.888 73.5042 323.111Z" fill="#FED843"/>
<path d="M258.578 176.079C265.922 179.913 274.983 177.069 278.818 169.725C282.652 162.382 279.808 153.32 272.464 149.486C265.121 145.651 256.059 148.496 252.225 155.839C248.39 163.183 251.235 172.244 258.578 176.079Z" fill="#FED843"/>
<path d="M338.4 317.031C345.743 320.866 354.805 318.021 358.639 310.678C362.474 303.334 359.629 294.273 352.286 290.438C344.942 286.604 335.881 289.448 332.046 296.792C328.212 304.135 331.056 313.197 338.4 317.031Z" fill="#AD77E3"/>
<path d="M278.817 169.725C282.652 162.381 279.807 153.32 272.464 149.486L258.578 176.078C265.921 179.913 274.983 177.068 278.817 169.725Z" fill="#FABE2C"/>
<path d="M66.7972 93.9872C43.8248 81.9918 34.8945 53.5437 46.89 30.5713C58.8854 7.59891 87.3335 -1.3314 110.306 10.664C133.278 22.6595 142.209 51.1076 130.213 74.08C118.218 97.0523 89.7696 105.983 66.7972 93.9872Z" fill="#FF6666"/>
</g>
<g style="mix-blend-mode:multiply" opacity="0.1" clip-path="url(#clip2_4501_4)">
<path d="M1468.54 -78.3613C1473.02 -74.8689 1475.14 -69.1445 1474.02 -63.5746C1455.4 29.1053 1589.42 97.7114 1590.78 98.3919C1598.18 102.115 1601.16 111.126 1597.45 118.525C1593.73 125.924 1584.73 128.917 1577.33 125.207C1575.76 124.422 1538.54 105.601 1503.54 73.082C1463.51 35.8848 1442.66 -4.36301 1442.25 -44.6284C1403.11 -35.1807 1358.98 -45.5623 1313.13 -75.2905C1273.04 -101.274 1245.69 -132.768 1244.55 -134.095C1239.14 -140.37 1239.84 -149.841 1246.11 -155.251C1252.39 -160.659 1261.86 -159.955 1267.27 -153.685C1268.26 -152.544 1367.54 -39.3555 1452.86 -80.0665C1457.98 -82.514 1464.05 -81.853 1468.54 -78.3613Z" fill="#E2DFF4"/>
<path d="M1452.86 -80.0665C1367.54 -39.3549 1268.26 -152.544 1267.27 -153.685C1261.86 -159.955 1252.39 -160.659 1246.11 -155.251C1239.84 -149.841 1239.14 -140.37 1244.55 -134.095C1245.69 -132.767 1273.04 -101.274 1313.13 -75.2905C1358.98 -45.5615 1403.11 -35.1807 1442.25 -44.6284L1468.54 -78.362C1464.05 -81.853 1457.98 -82.5139 1452.86 -80.0665Z" fill="#BEBCDD"/>
<path d="M1285.06 -217.983C1283.33 -214.092 1283.35 -209.655 1285.08 -205.766C1287.72 -199.895 1348.9 -66.0942 1448.39 -52.5037C1485.89 40.636 1630.58 67.2627 1636.92 68.3849C1641.11 69.1184 1645.42 68.0496 1648.77 65.4249L1692.56 31.1766L1686.94 12.4649L1529.06 -55.7491C1529.06 -55.7491 1538 -171.347 1433.73 -130.028L1317.21 -281.198L1307.15 -269.352L1285.06 -217.983Z" fill="#F9F9F9"/>
<path d="M1328.21 -290.39C1329.18 -289.637 1330.07 -288.755 1330.85 -287.744L1436.77 -151.253C1463.14 -163.169 1494.19 -159.786 1517.7 -141.464C1541.22 -123.142 1552.09 -93.861 1546.98 -65.3787L1705.22 3.96629C1712.81 7.2959 1716.26 16.1387 1712.94 23.7258C1709.61 31.3129 1700.77 34.7691 1693.18 31.4435L1523.12 -43.0803C1515.83 -46.2756 1512.31 -54.6022 1515.09 -62.0565C1522.59 -82.1819 1516.23 -104.583 1499.27 -117.801C1482.3 -131.019 1459.03 -131.708 1441.35 -119.516C1434.8 -115 1425.86 -116.381 1420.98 -122.669L1307.15 -269.352C1302.07 -275.897 1303.26 -285.319 1309.8 -290.398C1315.34 -294.692 1322.93 -294.506 1328.21 -290.39Z" fill="#BC8173"/>
<path d="M1046.52 92.2879L1056.78 100.278L1048.79 110.532C1043.7 117.067 1044.87 126.492 1051.4 131.584C1057.94 136.676 1067.36 135.506 1072.45 128.971L1080.44 118.717L1090.7 126.707C1097.23 131.799 1106.66 130.629 1111.75 124.095C1116.84 117.561 1115.67 108.135 1109.14 103.043L1098.88 95.0532L1106.87 84.7989C1111.96 78.2645 1110.79 68.8391 1104.26 63.7475C1097.72 58.6558 1088.3 59.8255 1083.21 66.3599L1075.22 76.6142L1064.96 68.624C1058.43 63.5324 1049 64.7021 1043.91 71.2364C1038.82 77.7708 1039.99 87.1963 1046.52 92.2879Z" fill="#31BEBE"/>
<path d="M1321.84 -20.2625C1326.47 -16.6516 1328.74 -10.4841 1327.09 -4.46487C1324.9 3.52589 1316.65 8.23073 1308.66 6.04356L1208.35 -21.4094C1200.36 -23.5934 1195.66 -31.8464 1197.85 -39.8357C1200.03 -47.8265 1208.28 -52.5314 1216.27 -50.3442L1316.58 -22.8912C1318.55 -22.352 1320.32 -21.4439 1321.84 -20.2625Z" fill="#FABE2C"/>
<path d="M1349.86 21.8569C1350.77 22.5637 1351.61 23.3873 1352.36 24.3251C1357.54 30.7922 1356.49 40.2309 1350.02 45.4084L1215.21 153.341C1208.75 158.518 1199.31 157.475 1194.13 151.006C1188.95 144.539 1190 135.1 1196.47 129.923L1331.28 21.9902C1336.8 17.5634 1344.51 17.6854 1349.86 21.8569Z" fill="#FABE2C"/>
<path d="M1400.37 61.2141C1406.16 65.7285 1407.91 73.9306 1404.15 80.4902L1347.93 178.669C1343.81 185.858 1334.65 188.349 1327.46 184.232C1320.28 180.125 1317.78 170.951 1321.9 163.761L1378.12 65.5816C1382.23 58.393 1391.4 55.9019 1398.59 60.0186C1399.22 60.3801 1399.81 60.7801 1400.37 61.2141Z" fill="#FED843"/>
<path d="M1460.67 87.9198C1463.7 90.2793 1465.83 93.7945 1466.33 97.9045L1483.05 232.634C1484.08 240.854 1478.24 248.346 1470.02 249.366C1461.8 250.387 1454.3 244.549 1453.28 236.328L1436.56 101.599C1435.54 93.3786 1441.38 85.8866 1449.6 84.8663C1453.71 84.3568 1457.64 85.5602 1460.67 87.9198Z" fill="#FED843"/>
<path d="M1252.18 199.295C1245.65 194.203 1236.22 195.373 1231.13 201.908C1226.04 208.442 1227.21 217.868 1233.74 222.959C1240.28 228.051 1249.7 226.882 1254.8 220.347C1259.89 213.812 1258.72 204.387 1252.18 199.295Z" fill="#FED843"/>
<path d="M1198.99 46.2918C1192.46 41.2 1183.03 42.3696 1177.94 48.9043C1172.85 55.439 1174.02 64.8641 1180.56 69.956C1187.09 75.0479 1196.51 73.8782 1201.61 67.3435C1206.7 60.8088 1205.53 51.3837 1198.99 46.2918Z" fill="#AD77E3"/>
<path d="M1231.13 201.908C1226.04 208.443 1227.21 217.868 1233.74 222.96L1252.18 199.295C1245.65 194.204 1236.22 195.373 1231.13 201.908Z" fill="#FABE2C"/>
<path d="M1426.09 314.518C1446.53 330.447 1450.2 360.037 1434.27 380.479C1418.34 400.921 1388.75 404.593 1368.31 388.665C1347.87 372.736 1344.2 343.146 1360.13 322.703C1376.06 302.261 1405.65 298.589 1426.09 314.518Z" fill="#FF6666"/>
</g>
</g>
<defs>
<clipPath id="clip0_4501_4">
<rect width="1440" height="746" fill="white"/>
</clipPath>
<clipPath id="clip1_4501_4">
<rect width="512" height="512" fill="white" transform="translate(67.9866 -12) rotate(27.5721)"/>
</clipPath>
<clipPath id="clip2_4501_4">
<rect width="512" height="512" fill="white" transform="translate(1405.87 418.565) rotate(-142.074)"/>
</clipPath>
</defs>
</svg>
