<svg width="150" height="150" viewBox="0 0 111 65" fill="white" xmlns="http://www.w3.org/2000/svg">
<path d="M34.4847 30.489C34.674 30.5297 34.816 30.6312 34.9106 30.7937C35.0053 30.9427 35.0324 31.112 34.9918 31.3015C34.9513 31.4911 34.8498 31.6401 34.6875 31.7485C34.5252 31.8432 34.3495 31.8703 34.1601 31.8297C32.1181 31.3692 29.6433 31.3625 26.7358 31.8094C25.9514 33.0687 25.0859 34.2401 24.1393 35.3235C23.1927 36.4203 22.273 37.3885 21.3805 38.2281C17.5534 41.8166 13.5572 44.5317 9.39204 46.3735C8.58064 46.739 7.7016 47.0573 6.75492 47.3281C5.82183 47.6125 4.92253 47.7547 4.05703 47.7547C3.23211 47.7547 2.50184 47.5719 1.86624 47.2062C0.62209 46.3937 0.277243 45.2698 0.831703 43.8344C1.25093 42.9 1.9271 41.9927 2.86021 41.1125C3.80685 40.2458 4.75349 39.4942 5.70012 38.8578C8.21544 37.111 11.1703 35.4995 14.5647 34.0235C18.1755 32.4797 21.651 31.376 24.9912 30.7125C25.2887 30.6448 25.5863 30.5839 25.8838 30.5297C26.7628 28.9995 27.3511 27.537 27.6486 26.1422C28.0543 24.0974 27.4863 22.4927 25.9447 21.3281C24.6869 20.4615 23.2467 19.9807 21.6239 19.886C20.0146 19.7776 18.6285 19.9875 17.4654 20.5156C17.3708 20.5562 17.2762 20.6036 17.1815 20.6578C17.0057 20.739 16.8299 20.7526 16.654 20.6985C16.4918 20.6307 16.3633 20.5156 16.2687 20.3531C16.1875 20.1771 16.174 20.001 16.2281 19.825C16.2822 19.649 16.3904 19.5135 16.5526 19.4187C16.6609 19.3646 16.7622 19.3172 16.857 19.2765C18.8043 18.2474 20.7043 16.7849 22.557 14.889C24.5044 12.8578 25.5863 11.1583 25.8026 9.79061C25.8297 9.45209 25.7959 9.19476 25.7013 9.01874C25.6201 8.84272 25.5254 8.71402 25.4172 8.63277C25.3496 8.57862 25.2144 8.57186 25.0115 8.61249C24.146 8.80209 22.841 9.6755 21.0965 11.2328C19.352 12.7901 17.364 14.862 15.1327 17.4485C13.0365 19.8724 11.1027 22.2964 9.33115 24.7203C7.57314 27.1307 6.22077 29.2026 5.27414 30.936C5.17948 31.0985 5.04424 31.2067 4.86844 31.261C4.70615 31.3151 4.53711 31.3015 4.36131 31.2203C4.18551 31.1255 4.07055 30.9969 4.01646 30.8344C3.96237 30.6583 3.96913 30.4823 4.03675 30.3062C4.53711 29.2635 5.17271 27.9635 5.94354 26.4062C7.40404 23.4812 8.83756 20.5156 10.244 17.5094C10.9607 15.925 11.4611 14.7401 11.7451 13.9547C12.0426 13.1692 12.2184 12.6479 12.2725 12.3906C12.1778 12.3229 12.0967 12.2349 12.029 12.1265C11.9479 11.9505 11.9344 11.7745 11.9885 11.5985C12.0426 11.4224 12.1508 11.287 12.3131 11.1922C12.5159 11.0974 12.6917 11.0567 12.8404 11.0703C13.0027 11.0703 13.1312 11.0974 13.2259 11.1515C13.3205 11.2057 13.3882 11.2531 13.4287 11.2937C13.6316 11.4833 13.7195 11.7677 13.6925 12.1469C13.6789 12.526 13.5437 13.0745 13.2868 13.7922C12.9622 14.6995 12.4416 15.9521 11.7248 17.55C11.0892 18.9448 10.3995 20.4276 9.65572 21.9985C11.0622 20.1432 12.5362 18.3219 14.0779 16.5344C15.038 15.4104 16.1672 14.1714 17.4654 12.8172C18.7773 11.463 20.0823 10.2578 21.3805 9.20152C22.6787 8.13175 23.8012 7.48175 24.7478 7.25152C25.14 7.18385 25.4578 7.19061 25.7013 7.27186C25.9582 7.33959 26.1543 7.43436 26.2895 7.55624C26.5464 7.74584 26.7696 8.03698 26.9589 8.42971C27.1482 8.82237 27.2159 9.33022 27.1618 9.95311C26.9859 11.0635 26.5058 12.1604 25.7215 13.2437C24.9507 14.3135 24.2272 15.187 23.551 15.864C22.6314 16.812 21.6577 17.6786 20.6299 18.464C20.9545 18.4505 21.2859 18.4573 21.6239 18.4844C23.6659 18.6333 25.3767 19.2156 26.7561 20.2312C28.744 21.7615 29.4878 23.8265 28.9874 26.4265C28.7034 27.7536 28.2369 29.0401 27.5877 30.286C30.2383 29.961 32.5373 30.0286 34.4847 30.489ZM20.4271 37.2328C22.1987 35.5401 23.6727 33.8406 24.8492 32.1344C21.7794 32.7708 18.5338 33.8203 15.1124 35.2828C11.7315 36.7589 8.85781 38.3161 6.49124 39.9547C4.13817 41.6067 2.67088 43.076 2.08938 44.3625C1.77834 45.0937 1.94062 45.649 2.57622 46.0281C3.75276 46.6781 5.84212 46.3735 8.84431 45.114C12.8608 43.3265 16.7217 40.6995 20.4271 37.2328ZM50.5505 28.7422C50.6722 28.8911 50.7262 29.0604 50.7127 29.25C50.6992 29.426 50.6248 29.5817 50.4896 29.7172C49.1913 30.8276 47.8458 31.613 46.4529 32.0735C45.0735 32.5339 43.7752 32.7573 42.5581 32.7437C41.3545 32.7302 40.3606 32.5812 39.5763 32.2969C39.4004 32.2291 39.2381 32.1615 39.0894 32.0937C38.5755 32.6219 38.021 33.062 37.426 33.414C36.831 33.7661 36.2359 33.949 35.6409 33.9625C35.3705 33.9625 35.1 33.9083 34.8295 33.8C33.7612 33.2854 33.5854 32.087 34.3021 30.2047C34.5996 29.4599 35.0188 28.7354 35.5597 28.0312C36.1142 27.3135 36.7363 26.7651 37.426 26.386C38.1157 26.0067 38.8257 25.939 39.5559 26.1828C39.7453 26.264 39.8737 26.3927 39.9413 26.5687C40.0225 26.7312 40.0293 26.9005 39.9616 27.0765C39.8805 27.2661 39.7588 27.4015 39.5965 27.4828C39.4342 27.5505 39.2584 27.5505 39.0691 27.4828C38.5011 27.3203 37.8791 27.5844 37.2029 28.275C36.5267 28.9521 35.9858 29.7714 35.5801 30.7328C35.3637 31.3015 35.2555 31.7349 35.2555 32.0328C35.2555 32.3307 35.2961 32.4932 35.3772 32.5203C35.7964 32.6828 36.4118 32.4729 37.2232 31.8906C37.4395 31.7281 37.6491 31.5521 37.852 31.3625C37.3651 30.9562 37.0947 30.4958 37.0406 29.9812C36.9865 29.1823 37.3651 28.5187 38.1766 27.9906C39.0285 27.5031 39.7926 27.4557 40.4688 27.8485C40.604 27.9161 40.7257 28.038 40.8339 28.214C40.9421 28.3901 40.9894 28.6339 40.9759 28.9453C40.9624 29.2567 40.8339 29.6495 40.5904 30.1235C40.4417 30.3942 40.2524 30.6854 40.0225 30.9969C40.036 30.9969 40.0428 30.9969 40.0428 30.9969C40.7054 31.2406 41.5641 31.3625 42.6189 31.3625C43.6738 31.3625 44.8097 31.1594 46.0268 30.7531C47.244 30.3469 48.4273 29.6562 49.5768 28.6812C49.7256 28.5594 49.8878 28.5052 50.0636 28.5187C50.253 28.5323 50.4152 28.6067 50.5505 28.7422ZM38.7851 30.3469C39.2314 29.751 39.4951 29.2906 39.5763 28.9656C39.5627 28.9656 39.5559 28.9656 39.5559 28.9656C39.3802 28.9656 39.1637 29.0333 38.9068 29.1687C38.7716 29.25 38.6566 29.3515 38.5619 29.4735C38.4673 29.5953 38.42 29.7172 38.42 29.839C38.4335 29.9745 38.5552 30.1437 38.7851 30.3469ZM64.9123 28.7422C65.0343 28.8911 65.0882 29.0604 65.0746 29.25C65.061 29.426 64.9869 29.5817 64.8514 29.7172C63.5532 30.8276 62.2076 31.613 60.8147 32.0735C59.4353 32.5339 58.1371 32.7573 56.92 32.7437C55.7164 32.7302 54.7224 32.5812 53.9381 32.2969C53.7623 32.2291 53.6 32.1615 53.4513 32.0937C52.9373 32.6219 52.3829 33.062 51.7878 33.414C51.1928 33.7661 50.5978 33.949 50.0027 33.9625C49.7323 33.9625 49.4618 33.9083 49.1913 33.8C48.123 33.2854 47.9472 32.087 48.664 30.2047C48.9615 29.4599 49.3807 28.7354 49.9216 28.0312C50.4761 27.3135 51.0982 26.7651 51.7878 26.386C52.4776 26.0067 53.1875 25.939 53.9178 26.1828C54.1071 26.264 54.2356 26.3927 54.3032 26.5687C54.3843 26.7312 54.3911 26.9005 54.3235 27.0765C54.2423 27.2661 54.1206 27.4015 53.9584 27.4828C53.7961 27.5505 53.6203 27.5505 53.4309 27.4828C52.863 27.3203 52.2409 27.5844 51.5647 28.275C50.8885 28.9521 50.3476 29.7714 49.9419 30.7328C49.7256 31.3015 49.6173 31.7349 49.6173 32.0328C49.6173 32.3307 49.6579 32.4932 49.7391 32.5203C50.1583 32.6828 50.7736 32.4729 51.585 31.8906C51.8014 31.7281 52.011 31.5521 52.2138 31.3625C51.727 30.9562 51.4565 30.4958 51.4024 29.9812C51.3484 29.1823 51.727 28.5187 52.5384 27.9906C53.3904 27.5031 54.1545 27.4557 54.8306 27.8485C54.9659 27.9161 55.0876 28.038 55.1957 28.214C55.3039 28.3901 55.3512 28.6339 55.3377 28.9453C55.3242 29.2567 55.1957 29.6495 54.9523 30.1235C54.8036 30.3942 54.6142 30.6854 54.3843 30.9969C54.3979 30.9969 54.4046 30.9969 54.4046 30.9969C55.0672 31.2406 55.926 31.3625 56.9808 31.3625C58.0356 31.3625 59.1716 31.1594 60.3887 30.7531C61.6058 30.3469 62.7891 29.6562 63.9386 28.6812C64.0874 28.5594 64.2497 28.5052 64.4255 28.5187C64.6148 28.5323 64.7771 28.6067 64.9123 28.7422ZM53.1469 30.3469C53.5932 29.751 53.857 29.2906 53.9381 28.9656C53.9245 28.9656 53.9178 28.9656 53.9178 28.9656C53.742 28.9656 53.5256 29.0333 53.2687 29.1687C53.1334 29.25 53.0185 29.3515 52.9238 29.4735C52.8291 29.5953 52.7818 29.7172 52.7818 29.839C52.7953 29.9745 52.917 30.1437 53.1469 30.3469ZM81.1404 28.8031C81.2488 28.9656 81.289 29.1349 81.2624 29.311C81.2351 29.487 81.1469 29.636 80.9982 29.7578C79.5241 30.8276 77.9895 31.6942 76.394 32.3578C74.7978 33.0214 73.3574 33.5291 72.0728 33.8812C68.8817 34.7073 66.65 35.0729 65.379 34.9781C65.1083 34.951 64.9123 34.8156 64.7906 34.5719C64.6959 34.3146 64.7298 34.0776 64.8921 33.861C65.4465 33.1703 66.1158 32.3646 66.8999 31.4437C64.2497 34.3416 62.0251 36.9755 60.2264 39.3453C60.0777 39.5349 59.8951 39.6297 59.6787 39.6297C59.557 39.6297 59.4421 39.5958 59.3339 39.5281C59.1716 39.4333 59.0702 39.3047 59.0296 39.1422C58.9756 38.9797 58.9823 38.8172 59.0499 38.6547C61.5112 33.2245 64.3105 27.862 67.4478 22.5672C68.4351 20.9286 69.2874 19.5812 70.004 18.525C70.7206 17.4552 71.3224 16.6291 71.8092 16.0469C72.2961 15.451 72.6881 15.0177 72.9861 14.7469C73.297 14.476 73.5404 14.3135 73.7157 14.2594C73.8916 14.1916 74.0201 14.1578 74.1013 14.1578C74.4933 14.1442 74.7978 14.3 75.0139 14.625C75.1087 14.7875 75.136 14.9635 75.0957 15.1531C75.0548 15.3291 74.9536 15.4714 74.7913 15.5797C74.5615 15.7015 74.3311 15.7083 74.1013 15.6C73.8176 15.776 73.2159 16.4735 72.2961 17.6922C71.3763 18.8974 70.0917 20.861 68.4422 23.5828C66.4949 26.887 64.6148 30.3469 62.8027 33.9625C64.3578 32.1479 65.9262 30.4146 67.5088 28.7625C69.0914 27.1104 70.4435 25.8375 71.5658 24.9437C71.782 24.7812 72.0189 24.7541 72.2759 24.8625C72.533 24.9844 72.6953 25.1807 72.7628 25.4515C72.8705 25.8307 72.5934 26.4875 71.9306 27.4219C71.2815 28.3562 70.0579 29.8729 68.2592 31.9719C67.7996 32.5135 67.3601 33.0281 66.9408 33.5156C68.55 33.3666 70.6058 32.9062 73.1075 32.1344C75.6228 31.3625 77.9824 30.2047 80.1868 28.661C80.3355 28.539 80.4977 28.4916 80.6737 28.5187C80.8632 28.5458 81.0183 28.6406 81.1404 28.8031Z" fill="white"/>
<path d="M93.0881 22.6812C93.0797 22.4182 92.8596 22.2117 92.5974 22.2201C92.5909 22.2203 92.4383 22.2254 92.1878 22.2492C91.9262 22.2739 91.7347 22.5064 91.7593 22.7683C91.784 23.0304 92.0164 23.2226 92.278 23.1977C92.4935 23.1773 92.624 23.1726 92.6279 23.1726C92.8901 23.1639 93.0965 22.944 93.0881 22.6812Z" fill="white"/>
<path d="M86.1366 44.3186C85.9075 44.4101 85.6692 44.4993 85.4291 44.5835C85.1811 44.6705 85.0506 44.9422 85.1376 45.1906C85.2239 45.4383 85.4953 45.57 85.7439 45.4828C85.9964 45.3941 86.2476 45.3003 86.4891 45.2037C86.7332 45.1063 86.852 44.8292 86.7552 44.5848C86.6579 44.3404 86.3813 44.2212 86.1366 44.3186Z" fill="white"/>
<path d="M89.6439 42.8819C89.4868 42.6706 89.1888 42.6265 88.9779 42.7833C88.7864 42.9256 88.5812 43.0662 88.3677 43.2012C88.145 43.3416 88.0788 43.6358 88.219 43.8583C88.3592 44.0805 88.6526 44.1476 88.8753 44.007C89.109 43.8592 89.3342 43.705 89.5452 43.5484C89.7562 43.3915 89.8003 43.0932 89.6439 42.8819Z" fill="white"/>
<path d="M91.4432 41.5661C91.525 41.4361 91.6029 41.3025 91.673 41.169C91.7334 41.0547 91.7905 40.9373 91.8424 40.8202C91.9482 40.5795 91.8392 40.2977 91.599 40.1918C91.3588 40.0856 91.0777 40.1945 90.9719 40.4351C90.9291 40.532 90.8817 40.6291 90.8317 40.7239C90.7733 40.8353 90.7084 40.947 90.6396 41.0558C90.4987 41.278 90.5643 41.5724 90.7863 41.7133C91.0076 41.854 91.3023 41.7887 91.4432 41.5661Z" fill="white"/>
<path d="M92.1339 37.2303C92.0755 36.9736 91.821 36.8129 91.5646 36.8711C91.3082 36.9292 91.1479 37.1845 91.2056 37.441C91.2602 37.6798 91.2991 37.9174 91.3212 38.1474C91.3471 38.4093 91.5802 38.6006 91.8418 38.5748C92.1034 38.549 92.2942 38.3158 92.2682 38.0539C92.2416 37.7846 92.1968 37.5075 92.1339 37.2303Z" fill="white"/>
<path d="M91.1258 34.7109C90.9985 34.4843 90.859 34.2527 90.7116 34.0224C90.5701 33.8009 90.2754 33.7365 90.0541 33.8785C89.8334 34.0206 89.7685 34.3153 89.9106 34.5368C90.0482 34.7515 90.1781 34.9673 90.2962 35.1777C90.4241 35.4056 90.7136 35.4894 90.944 35.3596C91.1732 35.2307 91.2543 34.9403 91.1258 34.7109Z" fill="white"/>
<path d="M88.761 31.2827C88.6176 31.0621 88.3229 30.9999 88.1028 31.1435C87.8828 31.287 87.8204 31.5822 87.9639 31.8027C88.1035 32.0176 88.2534 32.2386 88.4092 32.4595C88.5598 32.673 88.8571 32.7263 89.0726 32.5734C89.2868 32.4215 89.3381 32.1241 89.1862 31.9093C89.0369 31.6982 88.8941 31.4874 88.761 31.2827Z" fill="white"/>
<path d="M86.7079 29.4403C86.8046 29.6843 87.0811 29.8043 87.3258 29.7067C87.5699 29.6094 87.6887 29.3323 87.592 29.0878C87.4985 28.8525 87.418 28.6204 87.3531 28.398C87.2797 28.1455 87.0155 28.0003 86.7637 28.0738C86.5112 28.1474 86.3664 28.4119 86.4398 28.6645C86.5125 28.916 86.6027 29.1771 86.7079 29.4403Z" fill="white"/>
<path d="M87.3297 24.8528C87.1006 24.7248 86.8104 24.8046 86.6812 25.0338C86.6643 25.0634 86.6481 25.0933 86.6325 25.1232C86.5112 25.3537 86.4131 25.5986 86.3411 25.8513C86.2684 26.1052 86.4157 26.3684 86.6676 26.4403C86.9201 26.5125 87.1837 26.366 87.2557 26.1129C87.3096 25.9236 87.3836 25.7405 87.4745 25.5679C87.4861 25.5457 87.4978 25.5236 87.5102 25.5019C87.6393 25.2726 87.5582 24.9821 87.3297 24.8528Z" fill="white"/>
<path d="M88.576 23.7914C88.6922 24.0274 88.9772 24.1244 89.2128 24.008C89.4199 23.9058 89.6445 23.8104 89.8788 23.7244C90.1255 23.634 90.2527 23.3605 90.1625 23.1134C90.0723 22.8661 89.799 22.7391 89.5523 22.8295C89.2855 22.9271 89.0298 23.0361 88.7922 23.1534C88.5566 23.2697 88.4598 23.5554 88.576 23.7914Z" fill="white"/>
<path d="M82.9916 45.265C82.7683 45.3115 82.6391 45.333 82.6378 45.3333C82.3782 45.376 82.2029 45.6211 82.2458 45.8807C82.2886 46.1412 82.5333 46.3161 82.7923 46.2735C82.7982 46.2725 82.9403 46.2489 83.1857 46.1979C83.4427 46.1444 83.6076 45.8921 83.5544 45.6345C83.5012 45.377 83.2493 45.2115 82.9916 45.265Z" fill="white"/>
<path d="M82.865 49.5533L91.0544 53.8855C91.7567 54.2572 92.6162 54.1776 93.2977 53.6777C101.251 47.838 104.109 40.3007 97.0782 33.2554C94.8147 30.9873 92.2832 27.8985 93.0757 26.0636C93.7093 24.597 96.4512 23.9278 101.225 24.0748C101.978 24.0979 102.264 23.0591 101.604 22.71C100.713 22.2383 99.4865 21.5898 98.5543 21.0965C98.0266 20.8174 97.4515 20.6662 96.8445 20.6471C95.3671 20.6006 93.3847 20.6009 91.3699 20.7875C85.5998 20.9335 82.0426 22.1501 80.7976 24.4037C79.9459 25.9464 80.216 27.9144 81.6012 30.2531C82.8566 32.3716 83.124 34.1449 82.397 35.5236C80.4587 39.2005 71.7482 39.7586 68.8862 39.9419C67.8547 40.0081 67.5204 41.4361 68.4156 41.9095L80.9034 48.5156C81.1358 48.6385 81.4233 48.5495 81.546 48.317C81.6687 48.0845 81.5798 47.7965 81.3474 47.6737L72.0572 42.7591C81.7031 41.8336 89.2232 38.2251 84.2801 29.8793C81.1981 24.6768 84.7715 22.4979 90.7947 21.8039C92.9816 21.5537 95.2036 21.5481 96.8147 21.5988C97.2756 21.6133 97.7118 21.7276 98.1103 21.9384L99.2262 22.5287C96.3636 22.5538 91.967 22.968 90.7668 25.5697C90.3066 26.5677 90.3715 27.7768 90.9583 29.1636C91.5789 30.6291 92.8109 32.3474 94.62 34.2707C97.7631 37.6122 98.7114 40.8962 97.4391 44.0315C97.3398 44.275 97.4567 44.5526 97.7001 44.6518C97.9435 44.7508 98.2207 44.6336 98.32 44.39C99.7448 40.879 98.7329 37.2546 95.312 33.6178C92.1475 30.2531 90.8739 27.6082 91.6301 25.9689C91.9106 25.3607 92.4377 24.9281 93.0251 24.6091C90.1553 27.0048 93.7573 31.2746 96.4057 33.9282C99.0788 36.6071 100.323 39.4134 100.104 42.2694C99.7351 47.0909 95.3288 51.0055 92.735 52.9097C92.3507 53.1922 91.8762 53.2435 91.4984 53.0434L90.1372 52.3234C92.757 50.8819 95.4963 48.8777 97.2003 46.4299C97.3502 46.2142 97.297 45.9175 97.0821 45.7672C96.8666 45.6175 96.57 45.6698 96.42 45.8855C95.5619 47.1186 93.4788 49.5076 89.1226 51.7867L83.309 48.7114C83.0773 48.5886 82.7891 48.6775 82.6671 48.91C82.5444 49.1425 82.6327 49.4306 82.865 49.5533ZM70.4902 41.9302L68.8596 41.0677C68.855 41.0651 68.8531 41.0634 68.8531 41.0634V41.0634C68.8466 41.0535 68.8414 41.0073 68.8667 40.9561C68.8966 40.8955 68.9342 40.893 68.9466 40.8922C74.1428 40.5592 81.2773 39.6867 83.2383 35.9681C84.1302 34.2766 83.8543 32.1903 82.4191 29.7673C80.5925 26.6832 80.7749 24.3233 84.0646 22.9453C81.572 24.7811 81.8011 27.444 83.3357 30.1476C83.4467 30.343 83.4837 30.3984 83.5992 30.6019C88.1385 38.5898 79.6233 41.3327 70.4902 41.9302Z" fill="white"/>
<path d="M26.4782 42.764H28.0482V44.336C28.0482 45.3378 28.8592 46.15 29.8597 46.15C30.8601 46.15 31.6712 45.3378 31.6712 44.336V42.764H33.2411C34.2416 42.764 35.0527 41.9518 35.0527 40.95C35.0527 39.9482 34.2416 39.136 33.2411 39.136H31.6712V37.564C31.6712 36.5622 30.8601 35.75 29.8597 35.75C28.8592 35.75 28.0482 36.5622 28.0482 37.564V39.136H26.4782C25.4778 39.136 24.6667 39.9482 24.6667 40.95C24.6667 41.9518 25.4778 42.764 26.4782 42.764Z" fill="white"/>
<path d="M46.1951 15.1394L41.2675 21.0165C40.875 21.4846 40.9357 22.1827 41.4033 22.5757C41.7555 22.8719 42.2381 22.9103 42.6226 22.7111C42.7484 22.6459 42.8637 22.5552 42.9605 22.4397L47.8881 16.5626C48.2806 16.0946 48.2199 15.3964 47.7523 15.0034C47.2848 14.6104 46.5875 14.6711 46.1951 15.1394Z" fill="white"/>
<path d="M38.6977 23.3816C38.7837 23.3602 38.8646 23.3294 38.9398 23.2904C39.384 23.0603 39.6294 22.5476 39.5035 22.0404L36.4311 9.67481C36.2837 9.08149 35.684 8.72041 35.0917 8.86796C34.499 9.01577 34.1386 9.61605 34.286 10.2092L37.3583 22.5748C37.5057 23.168 38.1053 23.5292 38.6977 23.3816Z" fill="white"/>
<path d="M33.3426 25.1208C33.666 25.5748 34.2688 25.711 34.7495 25.4619C34.7957 25.438 34.8408 25.4104 34.8844 25.3793C35.3814 25.0244 35.4969 24.3333 35.1426 23.8355L30.3022 17.0388C29.9477 16.5411 29.2567 16.4256 28.7604 16.7802C28.2634 17.1352 28.1479 17.8263 28.5022 18.324L33.3426 25.1208Z" fill="white"/>
<path d="M72.2792 6.07662C71.9773 6.37876 71.9773 6.86875 72.2792 7.17094L77.2248 12.1234C77.3754 12.2744 77.5734 12.35 77.7714 12.35C77.9687 12.35 78.1667 12.2744 78.3173 12.1234C78.6192 11.8212 78.6192 11.3312 78.3173 11.029L73.3717 6.07662C73.0698 5.77447 72.581 5.77447 72.2792 6.07662Z" fill="white"/>
<path d="M61.0175 22.1C62.8072 22.1 64.2631 20.6421 64.2631 18.85C64.2631 17.058 62.8072 15.6 61.0175 15.6C59.2279 15.6 57.7719 17.058 57.7719 18.85C57.7719 20.6421 59.2279 22.1 61.0175 22.1ZM61.0175 17.6745C61.6648 17.6745 62.1915 18.2018 62.1915 18.85C62.1915 19.4982 61.6648 20.0255 61.0175 20.0255C60.3702 20.0255 59.8436 19.4982 59.8436 18.85C59.8436 18.2018 60.3702 17.6745 61.0175 17.6745Z" fill="white"/>
<path d="M7.78948 8.45C9.22346 8.45 10.386 7.28591 10.386 5.85C10.386 4.41406 9.22346 3.25 7.78948 3.25C6.35548 3.25 5.19299 4.41406 5.19299 5.85C5.19299 7.28591 6.35548 8.45 7.78948 8.45Z" fill="white"/>
</svg>
